<svg width="410" height="230" viewBox="0 0 410 230" xmlns="http://www.w3.org/2000/svg" lang="en" xml:lang="en"><rect x="2" y="2" stroke-width="4" rx="6" width="406" height="226" stroke="rgba(84,174,255,0.4)" fill="#ffffff"/><g font-weight="600" font-size="110pt" font-family="Verdana,Geneva,DejaVu Sans,sans-serif" text-rendering="geometricPrecision"><g transform="translate(0, 21)" fill="#24292f"><g transform="translate(15, 0)"><g transform="scale(0.095)"><text x="0" y="132" textLength="3652" lengthAdjust="spacingAndGlyphs">Language Distribution in Public Repositories</text></g></g><g transform="translate(220, 21)"><circle cx="81" cy="81" r="81" fill="#000000"/></g><g transform="translate(221, 22)"><path fill-rule="evenodd" fill="#f1e05a" d="M 0.0,80.00000000000001 A 80 80 0 1 1 104.54800501681747 156.14062942801502 L 80,80 Z"/><path fill-rule="evenodd" fill="#3178c6" d="M 104.54800501681747,156.14062942801502 A 80 80 0 0 1 2.8190037710724027 101.04979384959066 L 80,80 Z"/><path fill-rule="evenodd" fill="#e34c26" d="M 2.8190037710724027,101.04979384959066 A 80 80 0 0 1 0.41153691200344156 88.10410656954903 L 80,80 Z"/><path fill-rule="evenodd" fill="#663399" d="M 0.41153691200344156,88.10410656954903 A 80 80 0 0 1 0.049353845106651306 82.80965823812026 L 80,80 Z"/><path fill-rule="evenodd" fill="#959da5" d="M 0.049353845106651306,82.80965823812026 A 80 80 0 0 1 0.0 80.00000000000003 L 80,80 Z"/></g><g transform="translate(15, 21)"><rect x="0.5" y="0.5" rx="2" width="15" height="15" fill="#f1e05a" stroke-width="1" stroke="#000000"/><text transform="scale(0.095)" x="263" y="132" textLength="1516" lengthAdjust="spacingAndGlyphs">JavaScript 70.04%</text></g><g transform="translate(15, 42)"><rect x="0.5" y="0.5" rx="2" width="15" height="15" fill="#3178c6" stroke-width="1" stroke="#000000"/><text transform="scale(0.095)" x="263" y="132" textLength="1568" lengthAdjust="spacingAndGlyphs">TypeScript 25.73%</text></g><g transform="translate(15, 63)"><rect x="0.5" y="0.5" rx="2" width="15" height="15" fill="#e34c26" stroke-width="1" stroke="#000000"/><text transform="scale(0.095)" x="263" y="132" textLength="1036" lengthAdjust="spacingAndGlyphs">HTML 2.62%</text></g><g transform="translate(15, 84)"><rect x="0.5" y="0.5" rx="2" width="15" height="15" fill="#663399" stroke-width="1" stroke="#000000"/><text transform="scale(0.095)" x="263" y="132" textLength="903" lengthAdjust="spacingAndGlyphs">CSS 1.06%</text></g><g transform="translate(15, 105)"><rect x="0.5" y="0.5" rx="2" width="15" height="15" fill="#959da5" stroke-width="1" stroke="#000000"/><text transform="scale(0.095)" x="263" y="132" textLength="1047" lengthAdjust="spacingAndGlyphs">Other 0.56%</text></g></g></g></svg>